<?xml version="1.0" encoding="UTF-8"?>
<svg version="1.1" xmlns="http://www.w3.org/2000/svg" width="2159" height="2048">
<path d="M0 0 C142.23 0 284.46 0 431 0 C431 252.12 431 504.24 431 764 C442.88 760.04 454.76 756.08 467 752 C476.87231418 748.74157452 486.74595119 745.48785487 496.625 742.25 C497.93011877 741.82197273 499.23523344 741.39393294 500.54034424 740.96588135 C519.13935629 734.8671917 537.76260097 728.84835639 556.41265869 722.90734863 C572.80193755 717.68559537 589.15743674 712.36608274 605.5 707 C623.99931933 700.92586219 642.52193187 694.93232799 661.07373047 689.02050781 C677.5755573 683.7598144 694.04428219 678.40309503 710.5 673 C728.99933248 666.92590147 747.52193147 660.93232811 766.07373047 655.02050781 C782.5755573 649.7598144 799.04428219 644.40309503 815.5 639 C833.99933248 632.92590147 852.52193147 626.93232811 871.07373047 621.02050781 C887.5755573 615.7598144 904.04428219 610.40309503 920.5 605 C938.99933248 598.92590147 957.52193147 592.93232811 976.07373047 587.02050781 C992.57555749 581.75981434 1009.04427632 576.40307755 1025.5 571 C1044.05122601 564.90894294 1062.62368932 558.89133906 1081.22955322 552.96923828 C1093.35299022 549.11019508 1105.45954307 545.20541396 1117.54296875 541.22265625 C1118.74626328 540.82658676 1119.9495578 540.43051727 1121.1893158 540.02244568 C1127.03006273 538.09933706 1132.86860662 536.16994582 1138.70385742 534.23022461 C1140.79989236 533.53867212 1142.89599857 532.84733558 1144.9921875 532.15625 C1146.42905159 531.67473228 1146.42905159 531.67473228 1147.89494324 531.18348694 C1148.7763649 530.89412766 1149.65778656 530.60476837 1150.56591797 530.30664062 C1151.71204056 529.92602478 1151.71204056 529.92602478 1152.88131714 529.53771973 C1155 529 1155 529 1159 529 C1176.35138243 580.9398208 1193.6949151 632.88225691 1211.02785409 684.82823562 C1213.07197921 690.95435708 1215.11616962 697.08045676 1217.16040039 703.20654297 C1217.56738631 704.42618917 1217.97437223 705.64583538 1218.39369106 706.90244056 C1224.99251352 726.67712338 1231.59662993 746.45003432 1238.20268828 766.22230087 C1244.97586366 786.49514725 1251.74338408 806.76987481 1258.50560659 827.0463773 C1262.68185491 839.56824552 1266.86256093 852.0886074 1271.04889642 864.60710694 C1273.91523695 873.17979483 1276.77610606 881.75429588 1279.63259298 890.33027206 C1281.28329873 895.28560676 1282.9364873 900.24007802 1284.59614944 905.19242096 C1286.11307097 909.7190091 1287.62316705 914.24781216 1289.12767809 918.77853979 C1289.67549759 920.42412613 1290.22589852 922.06885562 1290.77902699 923.71266507 C1291.52593665 925.93356115 1292.26369786 928.15728436 1292.99908543 930.38201714 C1293.61935859 932.23998871 1293.61935859 932.23998871 1294.25216252 934.13549507 C1295 937 1295 937 1294 939 C1291.7171825 939.92014641 1289.46996951 940.72312855 1287.13330078 941.48339844 C1286.41218613 941.7245488 1285.69107147 941.96569916 1284.94810486 942.2141571 C1282.53284431 943.01978682 1280.11415667 943.81457556 1277.6953125 944.609375 C1275.98350862 945.1777068 1274.27191367 945.74666823 1272.56051636 946.31622314 C1268.00562392 947.83002505 1263.44772573 949.3345797 1258.88922119 950.83746338 C1255.31064813 952.01883735 1251.73414281 953.20638781 1248.15777969 954.39443207 C1229.3952045 960.6271509 1210.60925577 966.78588296 1191.8046875 972.890625 C1168.49158914 980.45950043 1145.24510396 988.22528862 1122 996 C1113.89650567 998.71034837 1105.79258266 1001.41940461 1097.6875 1004.125 C1096.68939804 1004.45820755 1095.69129608 1004.7914151 1094.66294861 1005.13471985 C1080.65944148 1009.80713615 1066.63622593 1014.41488842 1052.59375 1018.96875 C1037.25817198 1023.94205043 1021.94851942 1028.98880339 1006.65625 1034.09375 C1005.62608765 1034.43761749 1004.59592529 1034.78148499 1003.5345459 1035.13577271 C996.18896863 1037.58833649 988.84437525 1040.04383944 981.5 1042.5 C973.11525269 1045.30408951 964.73008052 1048.10689858 956.34375 1050.90625 C955.31342651 1051.25019806 954.28310303 1051.59414612 953.22155762 1051.94851685 C938.09335686 1056.99604842 922.94148932 1061.96617309 907.77125549 1066.88575745 C893.59654597 1071.48414636 879.44755093 1076.15613772 865.3125 1080.875 C863.81649513 1081.37438835 863.81649513 1081.37438835 862.29026794 1081.88386536 C855.19278162 1084.25372676 848.09628059 1086.62653101 841 1089 C832.89650567 1091.71034837 824.7925825 1094.41940414 816.6875 1097.125 C815.68989655 1097.45804138 814.69229309 1097.79108276 813.66445923 1098.13421631 C798.75069486 1103.11035233 783.8124904 1108.00683673 768.85736084 1112.85705566 C754.65401268 1117.46519339 740.47624203 1122.14655585 726.3125 1126.875 C725.31529938 1127.20788025 724.31809875 1127.5407605 723.29067993 1127.88372803 C716.19305628 1130.25363522 709.09641787 1132.62648509 702 1135 C693.89650567 1137.71034837 685.79258452 1140.4194102 677.6875 1143.125 C676.20321471 1143.62051172 676.20321471 1143.62051172 674.68894386 1144.12603378 C658.33901893 1149.58127612 641.96014815 1154.94408231 625.56620789 1160.26541138 C612.79533481 1164.41082315 600.04376931 1168.60927237 587.3125 1172.875 C585.48507701 1173.48582958 583.65760263 1174.09650545 581.83007812 1174.70703125 C577.5528055 1176.13629322 573.27618166 1177.5674775 569 1179 C570.27242652 1181.66148909 571.65600662 1184.07233827 573.36328125 1186.4765625 C573.83113037 1187.137771 574.29897949 1187.79897949 574.78100586 1188.48022461 C575.53909546 1189.54188843 575.53909546 1189.54188843 576.3125 1190.625 C577.10829468 1191.74563843 577.10829468 1191.74563843 577.92016602 1192.88891602 C583.35853767 1200.53356244 588.85438418 1208.1367904 594.35888672 1215.73388672 C597.07648173 1219.486448 599.78794473 1223.24343419 602.5 1227 C603.58330362 1228.50002146 604.66663696 1230.00002146 605.75 1231.5 C612.25 1240.5 618.75 1249.5 625.25 1258.5 C626.05473755 1259.6142334 626.05473755 1259.6142334 626.87573242 1260.75097656 C627.95667191 1262.24768701 629.03756401 1263.74443168 630.1184082 1265.24121094 C632.8629754 1269.04182637 635.60841966 1272.84180298 638.35546875 1276.640625 C643.65682231 1283.97333833 648.94655437 1291.31361844 654.19873047 1298.68164062 C659.2098587 1305.70564895 664.27069471 1312.69378507 669.32666016 1319.68554688 C672.59229533 1324.20235771 675.85469618 1328.721505 679.11767578 1333.24023438 C681.86251144 1337.04115775 684.60818127 1340.84147332 687.35546875 1344.640625 C692.65682231 1351.97333833 697.94655437 1359.31361844 703.19873047 1366.68164062 C708.2098587 1373.70564895 713.27069471 1380.69378507 718.32666016 1387.68554688 C721.59229533 1392.20235771 724.85469618 1396.721505 728.11767578 1401.24023438 C730.86251144 1405.04115775 733.60818127 1408.84147332 736.35546875 1412.640625 C741.65682231 1419.97333833 746.94655437 1427.31361844 752.19873047 1434.68164062 C757.76274195 1442.48061546 763.38586232 1450.23708119 769 1458 C775.42105409 1466.87867815 781.83853602 1475.75923342 788.19873047 1484.68164062 C793.2098587 1491.70564895 798.27069471 1498.69378507 803.32666016 1505.68554688 C806.59229533 1510.20235771 809.85469618 1514.721505 813.11767578 1519.24023438 C815.86251144 1523.04115775 818.60818127 1526.84147332 821.35546875 1530.640625 C826.65682231 1537.97333833 831.94655437 1545.31361844 837.19873047 1552.68164062 C842.76274195 1560.48061546 848.38586232 1568.23708119 854 1576 C860.42105409 1584.87867815 866.83853602 1593.75923342 873.19873047 1602.68164062 C878.2098587 1609.70564895 883.27069471 1616.69378507 888.32666016 1623.68554688 C891.59229533 1628.20235771 894.85469618 1632.721505 898.11767578 1637.24023438 C900.86251144 1641.04115775 903.60818127 1644.84147332 906.35546875 1648.640625 C911.65682231 1655.97333833 916.94655437 1663.31361844 922.19873047 1670.68164062 C927.2098587 1677.70564895 932.27069471 1684.69378507 937.32666016 1691.68554688 C940.59229533 1696.20235771 943.85469618 1700.721505 947.11767578 1705.24023438 C949.86251144 1709.04115775 952.60818127 1712.84147332 955.35546875 1716.640625 C960.65682231 1723.97333833 965.94655437 1731.31361844 971.19873047 1738.68164062 C976.76274195 1746.48061546 982.38586232 1754.23708119 988 1762 C989.12244166 1763.55205019 990.24483765 1765.10413341 991.3671875 1766.65625 C991.91826172 1767.41824707 992.46933594 1768.18024414 993.03710938 1768.96533203 C994.12823574 1770.47579956 995.21810195 1771.98717828 996.30664062 1773.49951172 C998.86243224 1777.0501805 1001.43074328 1780.58925251 1004.0390625 1784.1015625 C1004.50868408 1784.74061523 1004.97830566 1785.37966797 1005.4621582 1786.03808594 C1006.33589622 1787.2266603 1007.21680817 1788.41000828 1008.10620117 1789.58691406 C1010.44411167 1792.78786434 1011 1793.87316795 1011 1798 C1009.15632186 1799.74567532 1007.42441265 1801.15930113 1005.375 1802.625 C1004.7874292 1803.06030029 1004.1998584 1803.49560059 1003.59448242 1803.9440918 C1001.74003569 1805.31100524 999.87226004 1806.6576156 998 1808 C997.43909668 1808.40524902 996.87819336 1808.81049805 996.30029297 1809.22802734 C993.47039942 1811.27142011 990.6297267 1813.29900995 987.78125 1815.31640625 C976.4623905 1823.33592589 965.26622072 1831.52423862 954.10888672 1839.76635742 C945.04893979 1846.45240175 935.90963888 1853.02736019 926.77050781 1859.60449219 C918.31406964 1865.6923875 909.88111091 1871.80868741 901.5 1878 C891.64592179 1885.27942622 881.71425666 1892.44830324 871.77050781 1899.60449219 C863.31406964 1905.6923875 854.88111091 1911.80868741 846.5 1918 C836.64592179 1925.27942622 826.71425666 1932.44830324 816.77050781 1939.60449219 C808.31406964 1945.6923875 799.88111091 1951.80868741 791.5 1958 C781.64592179 1965.27942622 771.71425666 1972.44830324 761.77050781 1979.60449219 C753.31406964 1985.6923875 744.88111091 1991.80868741 736.5 1998 C726.64592179 2005.27942622 716.71425666 2012.44830324 706.77050781 2019.60449219 C688.11745334 2032.86586191 688.11745334 2032.86586191 669.87792969 2046.6784668 C668 2048 668 2048 666.0390625 2048.04296875 C663.00384698 2046.49047346 661.33395349 2044.01107826 659.375 2041.3125 C658.93969971 2040.72944092 658.50439941 2040.14638184 658.0559082 2039.5456543 C656.69026548 2037.70669362 655.34236229 2035.8560088 654 2034 C653.59475098 2033.44054688 653.18950195 2032.88109375 652.77197266 2032.3046875 C650.7282904 2029.47355442 648.70184979 2026.63055265 646.68359375 2023.78125 C638.66350671 2012.46158967 630.47588648 2001.26354433 622.23144531 1990.10668945 C617.74230797 1984.02521405 613.31032964 1977.90437524 608.89453125 1971.76953125 C604.96607984 1966.31916162 600.99294732 1960.90325984 597 1955.5 C591.91794922 1948.6229644 586.88997203 1941.70966917 581.89453125 1934.76953125 C577.96607895 1929.31916038 573.99285479 1923.90332922 570 1918.5 C562.72040486 1908.6460488 555.55169487 1898.71425404 548.39550781 1888.77050781 C541.72765706 1879.50847805 535.01322961 1870.28415107 528.23071289 1861.10571289 C523.74183637 1855.02455095 519.31009187 1848.90404491 514.89453125 1842.76953125 C510.96607984 1837.31916162 506.99294732 1831.90325984 503 1826.5 C497.91794922 1819.6229644 492.88997203 1812.70966917 487.89453125 1805.76953125 C483.96607984 1800.31916162 479.99294732 1794.90325984 476 1789.5 C470.91794922 1782.6229644 465.88997203 1775.70966917 460.89453125 1768.76953125 C456.96607895 1763.31916038 452.99285479 1757.90332922 449 1752.5 C441.72040486 1742.6460488 434.55169487 1732.71425404 427.39550781 1722.77050781 C420.72765706 1713.50847805 414.01322961 1704.28415107 407.23071289 1695.10571289 C402.74183637 1689.02455095 398.31009187 1682.90404491 393.89453125 1676.76953125 C389.96607984 1671.31916162 385.99294732 1665.90325984 382 1660.5 C376.91794922 1653.6229644 371.88997203 1646.70966917 366.89453125 1639.76953125 C362.96607895 1634.31916038 358.99285479 1628.90332922 355 1623.5 C347.72040486 1613.6460488 340.55169487 1603.71425404 333.39550781 1593.77050781 C326.72765706 1584.50847805 320.01322961 1575.28415107 313.23071289 1566.10571289 C308.74183637 1560.02455095 304.31009187 1553.90404491 299.89453125 1547.76953125 C295.96607984 1542.31916162 291.99294732 1536.90325984 288 1531.5 C282.91794922 1524.6229644 277.88997203 1517.70966917 272.89453125 1510.76953125 C268.96607984 1505.31916162 264.99294732 1499.90325984 261 1494.5 C256.46249042 1488.35983802 251.96028008 1482.19649193 247.5 1476 C241.29390404 1467.37979138 234.99596078 1458.82915309 228.68554688 1450.28515625 C225.99156739 1446.6328318 223.30770984 1442.97310654 220.625 1439.3125 C220.15433105 1438.67030518 219.68366211 1438.02811035 219.19873047 1437.36645508 C218.13229962 1435.91110732 217.06611777 1434.45557712 216 1433 C211.7309222 1436.99491684 208.4257727 1441.35519259 205.0625 1446.125 C203.90843183 1447.74281543 202.75345368 1449.35998204 201.59765625 1450.9765625 C201.00484863 1451.80704102 200.41204102 1452.63751953 199.80126953 1453.49316406 C196.90535215 1457.52342696 193.95265428 1461.51121826 191 1465.5 C186.46194802 1471.63975426 181.96020318 1477.80346468 177.5 1484 C172.45992181 1491.00215242 167.35786615 1497.95613256 162.23046875 1504.89453125 C158.28584596 1510.23857676 154.38030944 1515.60910781 150.5 1521 C145.45992181 1528.00215242 140.35786615 1534.95613256 135.23046875 1541.89453125 C131.28584596 1547.23857676 127.38030944 1552.60910781 123.5 1558 C119.03979047 1564.19654414 114.53740365 1570.35976023 110 1576.5 C103.26446941 1585.61748366 96.62136363 1594.79940769 90 1604 C82.79877656 1614.0063257 75.55744101 1623.97939506 68.23071289 1633.89428711 C64.28592959 1639.23835616 60.38037592 1644.60901545 56.5 1650 C51.45992181 1657.00215242 46.35786615 1663.95613256 41.23046875 1670.89453125 C37.28584596 1676.23857676 33.38030944 1681.60910781 29.5 1687 C25.03979047 1693.19654414 20.53740365 1699.35976023 16 1705.5 C9.26446941 1714.61748366 2.62136363 1723.79940769 -4 1733 C-11.20122344 1743.0063257 -18.44255899 1752.97939506 -25.76928711 1762.89428711 C-29.71407041 1768.23835616 -33.61962408 1773.60901545 -37.5 1779 C-42.54007819 1786.00215242 -47.64213385 1792.95613256 -52.76953125 1799.89453125 C-56.71415404 1805.23857676 -60.61969056 1810.60910781 -64.5 1816 C-69.54007819 1823.00215242 -74.64213385 1829.95613256 -79.76953125 1836.89453125 C-83.71415404 1842.23857676 -87.61969056 1847.60910781 -91.5 1853 C-95.96020953 1859.19654414 -100.46259635 1865.35976023 -105 1871.5 C-111.73553059 1880.61748366 -118.37863637 1889.79940769 -125 1899 C-132.20122344 1909.0063257 -139.44255899 1918.97939506 -146.76928711 1928.89428711 C-150.71407041 1934.23835616 -154.61962408 1939.60901545 -158.5 1945 C-163.54007819 1952.00215242 -168.64213385 1958.95613256 -173.76953125 1965.89453125 C-177.71415404 1971.23857676 -181.61969056 1976.60910781 -185.5 1982 C-190.54007819 1989.00215242 -195.64213385 1995.95613256 -200.76953125 2002.89453125 C-204.71416628 2008.23859335 -208.61842481 2013.61000699 -212.5 2019 C-213.56107608 2020.46753602 -214.62227491 2021.93498329 -215.68359375 2023.40234375 C-218.06530402 2026.69683963 -220.42738717 2030.00474432 -222.78515625 2033.31640625 C-224.04382965 2035.06542175 -225.30293385 2036.81412732 -226.5625 2038.5625 C-227.14644531 2039.39072266 -227.73039063 2040.21894531 -228.33203125 2041.07226562 C-228.88375 2041.83345703 -229.43546875 2042.59464844 -230.00390625 2043.37890625 C-230.48674072 2044.0551001 -230.9695752 2044.73129395 -231.46704102 2045.42797852 C-233.32775309 2047.33610482 -234.34015563 2047.8488115 -237 2048 C-238.91259766 2047.03466797 -238.91259766 2047.03466797 -240.9140625 2045.4921875 C-241.66558594 2044.92435547 -242.41710937 2044.35652344 -243.19140625 2043.77148438 C-243.99449219 2043.14564453 -244.79757812 2042.51980469 -245.625 2041.875 C-247.34563908 2040.56936958 -249.06701028 2039.2647035 -250.7890625 2037.9609375 C-251.66079102 2037.29545898 -252.53251953 2036.62998047 -253.43066406 2035.94433594 C-257.23923439 2033.06221373 -261.11661486 2030.28000379 -265 2027.5 C-271.19779566 2023.04155502 -277.35978507 2018.5373853 -283.5 2014 C-292.61748366 2007.26446941 -301.79940769 2000.62136363 -311 1994 C-321.00550398 1986.79936792 -330.97688478 1979.55749214 -340.89208984 1972.23291016 C-349.21502749 1966.09080366 -357.60432215 1960.04209317 -366 1954 C-376.00550398 1946.79936792 -385.97688478 1939.55749214 -395.89208984 1932.23291016 C-404.21502749 1926.09080366 -412.60432215 1920.04209317 -421 1914 C-431.00550398 1906.79936792 -440.97688478 1899.55749214 -450.89208984 1892.23291016 C-459.21502749 1886.09080366 -467.60432215 1880.04209317 -476 1874 C-486.00550398 1866.79936792 -495.97688478 1859.55749214 -505.89208984 1852.23291016 C-514.21502749 1846.09080366 -522.60432215 1840.04209317 -531 1834 C-533.98003389 1831.85536764 -536.95934737 1829.70974415 -539.9375 1827.5625 C-541.04206543 1826.76622192 -541.04206543 1826.76622192 -542.16894531 1825.95385742 C-547.74605342 1821.92507 -553.28264409 1817.84330751 -558.8125 1813.75 C-566.11002024 1808.34986482 -573.48799305 1803.09791495 -581 1798 C-580.39192336 1794.87951605 -579.39805546 1792.85467005 -577.515625 1790.3046875 C-576.99935547 1789.59828125 -576.48308594 1788.891875 -575.95117188 1788.1640625 C-575.38978516 1787.40867187 -574.82839844 1786.65328125 -574.25 1785.875 C-573.05712803 1784.24751576 -571.86442431 1782.61990819 -570.671875 1780.9921875 C-570.06021484 1780.16170898 -569.44855469 1779.33123047 -568.81835938 1778.47558594 C-566.02144589 1774.66775797 -563.26150036 1770.8335428 -560.5 1767 C-559.41686905 1765.49985385 -558.33353504 1763.9998543 -557.25 1762.5 C-556.71375 1761.7575 -556.1775 1761.015 -555.625 1760.25 C-550.75 1753.5 -550.75 1753.5 -549.12426758 1751.24902344 C-548.04332809 1749.75231299 -546.96243599 1748.25556832 -545.8815918 1746.75878906 C-543.1370246 1742.95817363 -540.39158034 1739.15819702 -537.64453125 1735.359375 C-532.74654666 1728.58459258 -527.85255912 1721.80741898 -523 1715 C-516.48260504 1705.85706385 -509.89322028 1696.76607414 -503.31347656 1687.66796875 C-497.85849271 1680.12417934 -492.40372803 1672.58062703 -487 1665 C-481.59201881 1657.41340642 -476.13272873 1649.86409859 -470.67333984 1642.31445312 C-467.94736863 1638.54406983 -465.22375451 1634.77198481 -462.5 1631 C-459.2160604 1626.45224422 -455.93154955 1621.90490626 -452.64453125 1617.359375 C-447.74654666 1610.58459258 -442.85255912 1603.80741898 -438 1597 C-431.48260504 1587.85706385 -424.89322028 1578.76607414 -418.31347656 1569.66796875 C-412.85849271 1562.12417934 -407.40372803 1554.58062703 -402 1547 C-396.59201881 1539.41340642 -391.13272873 1531.86409859 -385.67333984 1524.31445312 C-382.94736863 1520.54406983 -380.22375451 1516.77198481 -377.5 1513 C-374.2160604 1508.45224422 -370.93154955 1503.90490626 -367.64453125 1499.359375 C-362.74654666 1492.58459258 -357.85255912 1485.80741898 -353 1479 C-346.48260504 1469.85706385 -339.89322028 1460.76607414 -333.31347656 1451.66796875 C-327.85849271 1444.12417934 -322.40372803 1436.58062703 -317 1429 C-311.59201881 1421.41340642 -306.13272873 1413.86409859 -300.67333984 1406.31445312 C-297.94736863 1402.54406983 -295.22375451 1398.77198481 -292.5 1395 C-289.2160604 1390.45224422 -285.93154955 1385.90490626 -282.64453125 1381.359375 C-277.74654666 1374.58459258 -272.85255912 1367.80741898 -268 1361 C-261.48260504 1351.85706385 -254.89322028 1342.76607414 -248.31347656 1333.66796875 C-242.85849271 1326.12417934 -237.40372803 1318.58062703 -232 1311 C-226.59201881 1303.41340642 -221.13272873 1295.86409859 -215.67333984 1288.31445312 C-212.94736863 1284.54406983 -210.22375451 1280.77198481 -207.5 1277 C-204.2160604 1272.45224422 -200.93154955 1267.90490626 -197.64453125 1263.359375 C-192.74654666 1256.58459258 -187.85255912 1249.80741898 -183 1243 C-176.48260504 1233.85706385 -169.89322028 1224.76607414 -163.31347656 1215.66796875 C-160.04680468 1211.15043297 -156.78289269 1206.63092838 -153.52246094 1202.10888672 C-152.05178614 1200.07173327 -150.57689968 1198.03768437 -149.1015625 1196.00390625 C-148.21335677 1194.77357096 -147.32532561 1193.54310961 -146.4375 1192.3125 C-145.67308594 1191.25675781 -144.90867187 1190.20101563 -144.12109375 1189.11328125 C-142.58684485 1186.86135422 -141.20254985 1184.66862628 -139.86743164 1182.30541992 C-139.2511792 1181.21463135 -138.63492676 1180.12384277 -138 1179 C-145.86202992 1176.37136633 -153.72470509 1173.74467346 -161.58807087 1171.12003899 C-165.24494906 1169.89938817 -168.9016535 1168.67822384 -172.55786133 1167.45556641 C-189.92489105 1161.64844233 -207.31239359 1155.91007957 -224.73046875 1150.2578125 C-240.07143273 1145.27865907 -255.38871519 1140.23229387 -270.6875 1135.125 C-272.18162698 1134.62624044 -272.18162698 1134.62624044 -273.70593834 1134.11740494 C-281.82215546 1131.40738672 -289.93704131 1128.69339069 -298.05187988 1125.97924805 C-305.13813667 1123.6093175 -312.22491038 1121.24094176 -319.3125 1118.875 C-320.31010345 1118.54195862 -321.30770691 1118.20891724 -322.33554077 1117.86578369 C-336.37079024 1113.18277351 -350.42579952 1108.56451771 -364.5 1104 C-379.58481501 1099.10772173 -394.64526701 1094.14672084 -409.6875 1089.125 C-411.18330093 1088.62567963 -411.18330093 1088.62567963 -412.70932007 1088.11627197 C-420.82440991 1085.40663129 -428.93816874 1082.6930136 -437.05187988 1079.97924805 C-444.13813667 1077.6093175 -451.22491024 1075.24094134 -458.3125 1072.875 C-459.80965294 1072.37518867 -459.80965294 1072.37518867 -461.33705139 1071.86528015 C-475.34055852 1067.19286385 -489.36377407 1062.58511158 -503.40625 1058.03125 C-518.74182802 1053.05794957 -534.05148058 1048.01119661 -549.34375 1042.90625 C-550.37391235 1042.56238251 -551.40407471 1042.21851501 -552.4654541 1041.86422729 C-560.86493516 1039.0597829 -569.26308733 1036.25136726 -577.66119385 1033.44281006 C-584.99226532 1030.99128345 -592.32384993 1028.54130015 -599.65625 1026.09375 C-600.68657349 1025.74980194 -601.71689697 1025.40585388 -602.77844238 1025.05148315 C-617.90664314 1020.00395158 -633.05851068 1015.03382691 -648.22874451 1010.11424255 C-662.40345403 1005.51585364 -676.55244907 1000.84386228 -690.6875 996.125 C-692.18350487 995.62561165 -692.18350487 995.62561165 -693.70973206 995.11613464 C-701.82468457 992.40653974 -709.93830602 989.69296768 -718.05187988 986.97924805 C-745.7284604 977.72308143 -773.43346599 968.56517609 -801.19274902 959.55999756 C-811.98314904 956.05914176 -822.76902116 952.54515813 -833.54199219 948.9909668 C-836.00448639 948.18104178 -838.46792624 947.37506377 -840.93359375 946.57495117 C-844.60855851 945.38218668 -848.27708205 944.17035727 -851.9453125 942.95703125 C-853.05206329 942.60083206 -854.15881409 942.24463287 -855.29910278 941.87763977 C-856.30141937 941.54265976 -857.30373596 941.20767975 -858.33642578 940.86254883 C-859.21710724 940.57390457 -860.0977887 940.28526031 -861.00515747 939.98786926 C-861.99260452 939.49887398 -861.99260452 939.49887398 -863 939 C-864.32868396 935.01394813 -863.34381594 933.28475001 -862.01749611 929.31140804 C-861.7910191 928.62475436 -861.5645421 927.93810068 -861.33120215 927.23063931 C-860.56330206 924.90993535 -859.78254037 922.59376223 -859.00186157 920.27732849 C-858.44582069 918.60587605 -857.8905696 916.9341607 -857.33604467 915.26220471 C-855.80460751 910.65247514 -854.26191024 906.04658051 -852.71742105 901.44121039 C-851.05580839 896.48014811 -849.40454357 891.51564289 -847.75202942 886.55154419 C-844.51104108 876.82115291 -841.26051298 867.09397387 -838.00691225 857.36779361 C-834.22194002 846.05178828 -830.44684903 834.73249485 -826.67232172 823.41300214 C-819.93942284 803.22256697 -813.19826256 783.03490005 -806.45214844 762.84887695 C-799.89931826 743.24116141 -793.35109907 723.6319151 -786.80859375 704.02075195 C-786.40565203 702.81293772 -786.0027103 701.60512349 -785.58755822 700.36070883 C-783.96814835 695.50649872 -782.34875559 690.65228291 -780.72938923 685.7980583 C-773.75277862 664.88524157 -766.77273848 643.9735693 -759.79191011 623.06216016 C-758.6594841 619.66987876 -757.52711603 616.27757802 -756.39475298 612.8852756 C-752.09707903 600.0108066 -747.79761252 587.13693841 -743.49559593 574.26391983 C-742.18917868 570.35452822 -740.88345191 566.44490708 -739.57834435 562.53507805 C-738.0794871 558.0449114 -736.57924083 553.55521145 -735.07783918 549.06589497 C-734.5328627 547.43558104 -733.98839344 545.80509745 -733.44446333 544.17443412 C-732.70907803 541.97007753 -731.97187854 539.76633621 -731.23418617 537.56275082 C-730.82392586 536.3348426 -730.41366555 535.10693439 -729.99097311 533.84181684 C-729 531 -729 531 -728 529 C-720.22502836 530.32088081 -712.90699696 532.50662371 -705.4375 535.0078125 C-703.59206684 535.61729919 -701.74663235 536.22678188 -699.90114403 536.83610153 C-697.9461819 537.48270846 -695.99216187 538.13209033 -694.03839111 538.7822876 C-687.84227098 540.84389467 -681.64010372 542.88719625 -675.43834305 544.93175888 C-674.0335261 545.39497915 -672.62877938 545.85841244 -671.22410202 546.32205582 C-658.04992524 550.6704101 -644.84549723 554.91952814 -631.625 559.125 C-614.22201398 564.66604177 -596.85233628 570.30235816 -579.5 576 C-562.02248451 581.7386348 -544.52712791 587.41470713 -527 593 C-508.30657291 598.9569523 -489.65172762 605.02505906 -471.01123047 611.14550781 C-454.69620652 616.50076865 -438.36081587 621.78637067 -422 627 C-404.47287151 632.58529305 -386.97753415 638.26142087 -369.5 644 C-350.93319183 650.09617327 -332.34319272 656.1123219 -313.72412109 662.046875 C-296.69789403 667.47544906 -279.70613217 673.00418835 -262.72564697 678.57403564 C-246.90090686 683.76314767 -231.0547821 688.88003902 -215.1875 693.9375 C-196.4320183 699.9156616 -177.71484836 706.00435185 -159.01205444 712.14523315 C-142.69675079 717.50058799 -126.36093625 722.78578556 -110 728 C-92.05942293 733.71925372 -74.1455244 739.51625778 -56.25 745.375 C-54.59436035 745.91664795 -54.59436035 745.91664795 -52.90527344 746.46923828 C-35.24822181 752.24815038 -17.62561619 758.1247946 0 764 C0 511.88 0 259.76 0 0 Z " fill="#D9622B" transform="translate(864,0)"/>
</svg>
